<svg width="35" height="35" viewBox="0 0 35 35" fill="none" xmlns="http://www.w3.org/2000/svg">
<path d="M21.1458 26.2501C20.125 26.2501 19.2622 25.8977 18.5573 25.1928C17.8524 24.4879 17.5 23.6251 17.5 22.6042C17.5 21.5834 17.8524 20.7206 18.5573 20.0157C19.2622 19.3108 20.125 18.9584 21.1458 18.9584C22.1667 18.9584 23.0295 19.3108 23.7344 20.0157C24.4392 20.7206 24.7917 21.5834 24.7917 22.6042C24.7917 23.6251 24.4392 24.4879 23.7344 25.1928C23.0295 25.8977 22.1667 26.2501 21.1458 26.2501ZM7.29167 32.0834C6.48959 32.0834 5.80271 31.7976 5.23104 31.2259C4.65938 30.6542 4.37403 29.9679 4.375 29.1667V8.75008C4.375 7.948 4.66084 7.26112 5.2325 6.68946C5.80417 6.11779 6.49056 5.83244 7.29167 5.83341H8.75V2.91675H11.6667V5.83341H23.3333V2.91675H26.25V5.83341H27.7083C28.5104 5.83341 29.1973 6.11925 29.769 6.69091C30.3406 7.26258 30.626 7.94897 30.625 8.75008V29.1667C30.625 29.9688 30.3392 30.6557 29.7675 31.2274C29.1958 31.799 28.5094 32.0844 27.7083 32.0834H7.29167ZM7.29167 29.1667H27.7083V14.5834H7.29167V29.1667Z" fill="#AB7ABF"/>
</svg>
