<svg width="35" height="35" viewBox="0 0 35 35" fill="none" xmlns="http://www.w3.org/2000/svg">
<path d="M11.3748 2.91675H23.6248C28.2915 2.91675 32.0832 6.70841 32.0832 11.3751V23.6251C32.0832 25.8684 31.192 28.0198 29.6058 29.606C28.0195 31.1923 25.8681 32.0834 23.6248 32.0834H11.3748C6.70817 32.0834 2.9165 28.2917 2.9165 23.6251V11.3751C2.9165 9.13179 3.80765 6.98038 5.39389 5.39414C6.98014 3.80789 9.13155 2.91675 11.3748 2.91675ZM11.0832 5.83341C9.69078 5.83341 8.35543 6.38654 7.37086 7.3711C6.38629 8.35567 5.83317 9.69103 5.83317 11.0834V23.9167C5.83317 26.8188 8.18109 29.1667 11.0832 29.1667H23.9165C25.3089 29.1667 26.6442 28.6136 27.6288 27.6291C28.6134 26.6445 29.1665 25.3091 29.1665 23.9167V11.0834C29.1665 8.18133 26.8186 5.83341 23.9165 5.83341H11.0832ZM25.1561 8.02091C25.6396 8.02091 26.1032 8.21297 26.4451 8.55483C26.7869 8.8967 26.979 9.36036 26.979 9.84383C26.979 10.3273 26.7869 10.791 26.4451 11.1328C26.1032 11.4747 25.6396 11.6667 25.1561 11.6667C24.6726 11.6667 24.209 11.4747 23.8671 11.1328C23.5252 10.791 23.3332 10.3273 23.3332 9.84383C23.3332 9.36036 23.5252 8.8967 23.8671 8.55483C24.209 8.21297 24.6726 8.02091 25.1561 8.02091ZM17.4998 10.2084C19.4337 10.2084 21.2884 10.9766 22.6558 12.3441C24.0233 13.7115 24.7915 15.5662 24.7915 17.5001C24.7915 19.434 24.0233 21.2886 22.6558 22.6561C21.2884 24.0235 19.4337 24.7917 17.4998 24.7917C15.566 24.7917 13.7113 24.0235 12.3439 22.6561C10.9764 21.2886 10.2082 19.434 10.2082 17.5001C10.2082 15.5662 10.9764 13.7115 12.3439 12.3441C13.7113 10.9766 15.566 10.2084 17.4998 10.2084ZM17.4998 13.1251C16.3395 13.1251 15.2267 13.586 14.4062 14.4065C13.5858 15.227 13.1248 16.3398 13.1248 17.5001C13.1248 18.6604 13.5858 19.7732 14.4062 20.5937C15.2267 21.4141 16.3395 21.8751 17.4998 21.8751C18.6602 21.8751 19.773 21.4141 20.5934 20.5937C21.4139 19.7732 21.8748 18.6604 21.8748 17.5001C21.8748 16.3398 21.4139 15.227 20.5934 14.4065C19.773 13.586 18.6602 13.1251 17.4998 13.1251Z" fill="#AB7ABF"/>
</svg>
