<svg width="35" height="35" viewBox="0 0 35 35" fill="none" xmlns="http://www.w3.org/2000/svg">
<path d="M18.085 32.17C14.3494 32.17 10.7669 30.686 8.1254 28.0446C5.48395 25.4031 4 21.8206 4 18.085C4 14.3494 5.48395 10.7669 8.1254 8.1254C10.7669 5.48395 14.3494 4 18.085 4C21.8206 4 25.4031 5.48395 28.0446 8.1254C30.686 10.7669 32.17 14.3494 32.17 18.085C32.17 21.8206 30.686 25.4031 28.0446 28.0446C25.4031 30.686 21.8206 32.17 18.085 32.17ZM29.0009 20.902C29.4773 19.0542 29.4773 17.1158 29.0009 15.268H23.6204C23.7509 17.1437 23.7509 19.0263 23.6204 20.902H29.0009ZM27.8459 23.719H23.3105C23.0746 25.4167 22.625 27.0779 21.9725 28.6628C24.4468 27.7501 26.5244 26.0013 27.8459 23.719ZM15.3807 20.902H20.7893C20.9422 19.0271 20.9422 17.1429 20.7893 15.268H15.3807C15.2278 17.1429 15.2278 19.0271 15.3807 20.902ZM15.7328 23.719C16.3103 27.0994 17.3244 29.353 18.085 29.353C18.8456 29.353 19.8597 27.0994 20.4372 23.719H15.7328ZM7.16912 20.902H12.5496C12.4191 19.0263 12.4191 17.1437 12.5496 15.268H7.16912C6.69267 17.1158 6.69267 19.0542 7.16912 20.902ZM8.32409 23.719C9.64563 26.0013 11.7232 27.7501 14.1975 28.6628C13.606 27.3107 13.1552 25.6205 12.8595 23.719H8.32409ZM27.8459 12.451C26.5244 10.1687 24.4468 8.41992 21.9725 7.50716C22.564 8.85932 23.0147 10.5495 23.3105 12.451H27.8459ZM15.7328 12.451H20.4372C19.8597 9.0706 18.8456 6.817 18.085 6.817C17.3244 6.817 16.3103 9.0706 15.7328 12.451ZM8.32409 12.451H12.8595C13.1412 10.5495 13.606 8.85932 14.1975 7.50716C11.7232 8.41992 9.64563 10.1687 8.32409 12.451Z" fill="#AB7ABF"/>
</svg>
