<svg width="35" height="35" viewBox="0 0 35 35" fill="none" xmlns="http://www.w3.org/2000/svg">
<path d="M32.7539 8.74992C31.631 9.26034 30.4206 9.59575 29.1664 9.75617C30.4498 8.98325 31.4414 7.75825 31.9081 6.28534C30.6977 7.0145 29.356 7.52492 27.9414 7.81659C26.7894 6.56242 25.1706 5.83325 23.3331 5.83325C19.906 5.83325 17.106 8.63325 17.106 12.0895C17.106 12.5853 17.1644 13.0666 17.2664 13.5187C12.0748 13.2562 7.45186 10.7624 4.37477 6.98534C3.83519 7.90409 3.52894 8.98325 3.52894 10.1208C3.52894 12.2937 4.62269 14.2187 6.31436 15.3124C5.27894 15.3124 4.31644 15.0208 3.47061 14.5833V14.627C3.47061 17.6603 5.62894 20.1978 8.48727 20.7666C7.56958 21.0177 6.60616 21.0527 5.67269 20.8687C6.06878 22.1119 6.84451 23.1997 7.89084 23.9792C8.93716 24.7587 10.2015 25.1907 11.506 25.2145C9.29465 26.9651 6.55352 27.9114 3.73311 27.8978C3.23727 27.8978 2.74144 27.8687 2.24561 27.8103C5.01644 29.5895 8.31227 30.6249 11.8414 30.6249C23.3331 30.6249 29.6477 21.0874 29.6477 12.8187C29.6477 12.5416 29.6477 12.2791 29.6331 12.002C30.8581 11.127 31.9081 10.0187 32.7539 8.74992Z" fill="#AB7ABF"/>
</svg>
